<svg xmlns="http://www.w3.org/2000/svg" xmlns:xlink="http://www.w3.org/1999/xlink" viewBox="0 0 64 64"><defs><style>.cls-1{fill:url(#linear-gradient);}.cls-2{fill:url(#linear-gradient-2);}.cls-3{fill:url(#linear-gradient-3);}.cls-4{fill:url(#linear-gradient-4);}.cls-5{fill:url(#linear-gradient-5);}.cls-6{fill:url(#linear-gradient-6);}.cls-7{fill:url(#linear-gradient-7);}</style><linearGradient id="linear-gradient" x1="28.81" y1="12" x2="35.19" y2="12" gradientUnits="userSpaceOnUse"><stop offset="0" stop-color="#00b4f5" id="id_129"></stop><stop offset="1" stop-color="#2afa00" id="id_130"></stop></linearGradient><linearGradient id="linear-gradient-2" x1="48.81" y1="52" x2="55.19" y2="52" xlink:href="#linear-gradient"></linearGradient><linearGradient id="linear-gradient-3" x1="28.81" y1="52" x2="35.19" y2="52" xlink:href="#linear-gradient"></linearGradient><linearGradient id="linear-gradient-4" x1="24" y1="31.97" x2="40" y2="31.97" xlink:href="#linear-gradient"></linearGradient><linearGradient id="linear-gradient-5" x1="44" y1="31.97" x2="60" y2="31.97" xlink:href="#linear-gradient"></linearGradient><linearGradient id="linear-gradient-6" x1="44" y1="12.03" x2="60" y2="12.03" xlink:href="#linear-gradient"></linearGradient><linearGradient id="linear-gradient-7" x1="4.09" y1="31.08" x2="10.69" y2="31.08" xlink:href="#linear-gradient"></linearGradient></defs><g id="Layer_11" data-name="Layer 11"><path class="cls-1" d="M32,15.23a3.23,3.23,0,0,0,0-6.46A3.23,3.23,0,0,0,32,15.23Z" id="id_122"></path><path class="cls-2" d="M52,48.77a3.23,3.23,0,0,0,0,6.46A3.23,3.23,0,0,0,52,48.77Z" id="id_123"></path><path class="cls-3" d="M32,48.77a3.23,3.23,0,0,0,0,6.46A3.23,3.23,0,0,0,32,48.77Z" id="id_124"></path><path class="cls-4" d="M32,24a8,8,0,0,0-8,8c.39,10.6,15.61,10.6,16,0A8,8,0,0,0,32,24Z" id="id_125"></path><path class="cls-5" d="M52,24a8,8,0,0,0-8,8c.39,10.6,15.61,10.6,16,0A8,8,0,0,0,52,24Z" id="id_126"></path><path class="cls-6" d="M52,20a8,8,0,0,0,8-8C59.61,1.4,44.39,1.4,44,12A8,8,0,0,0,52,20Z" id="id_127"></path><path class="cls-7" d="M8.76,33.33c.11,3.77-2.07,4.15-4.38,3.43l-.29,1.57c3.25,1,6.68.1,6.6-4.84v-10H8.76Z" id="id_128"></path></g></svg>